<svg width="231" height="32" viewBox="0 0 231 32" fill="none" xmlns="http://www.w3.org/2000/svg">
<path d="M14.3285 0.0456104C13.531 0.132615 12.3071 0.377809 11.3991 0.638823C9.7646 1.11339 7.88533 2.07044 6.39297 3.19359C4.45053 4.65685 2.85551 6.55513 1.75796 8.71442C1.18154 9.83757 0.826219 10.7867 0.518271 11.9969C-0.0818323 14.3539 -0.160793 16.7268 0.281388 18.9889C0.43931 19.8035 0.76305 20.9742 0.920972 21.3064C1.14996 21.7809 1.77375 21.9391 2.26331 21.6386L2.51598 21.4883L2.60284 21.1877L2.69759 20.8792L2.46071 20.0567C2.14487 18.981 1.98694 18.1109 1.8843 16.9403L1.80533 15.9912L1.8843 15.0104C1.93167 14.4725 2.04222 13.6658 2.13697 13.2228C2.50019 11.4274 3.2977 9.54492 4.37156 7.95511L4.93219 7.12462L5.95868 6.08847C6.5193 5.51899 7.25364 4.8625 7.57738 4.6173C9.46455 3.23314 11.5649 2.36309 13.9337 1.98344L14.7233 1.85689H16.0262H17.3291L18.1187 1.98344C19.6979 2.23654 21.0086 2.65575 22.4299 3.37551C24.3013 4.30883 26.0069 5.74836 27.3176 7.48845L27.8072 8.14494L27.5782 8.35059C27.4518 8.46132 25.6989 9.91667 23.6854 11.5935C21.664 13.2703 19.6663 14.9313 19.232 15.2951C18.8056 15.6511 18.4345 15.9358 18.4266 15.92C18.4108 15.9042 18.4977 15.5245 18.624 15.0658C18.7504 14.6149 19.0741 13.4285 19.3426 12.4319L19.8321 10.6127L19.7926 10.2568L19.7532 9.90085L19.5005 9.67147L19.2399 9.4421L18.6319 9.46583L18.0318 9.49747L17.7397 9.6952C17.5738 9.80594 16.7763 10.6602 15.963 11.5935C12.7888 15.2239 12.0466 16.0624 11.9755 16.0624C11.936 16.0624 11.6755 15.477 11.3991 14.7573C11.1227 14.0375 10.6174 12.7562 10.2936 11.9099C9.962 11.0635 9.62247 10.2331 9.53561 10.067C9.45665 9.90085 9.27504 9.6952 9.13291 9.6082L8.88023 9.45001L8.3512 9.47374L7.81426 9.50538L7.5379 9.7743L7.26154 10.0353L7.15099 10.3991C7.03255 10.7551 6.76408 11.7675 5.76128 15.5087C5.49281 16.5053 5.1059 17.9685 4.89271 18.7516C4.67951 19.5346 4.22154 21.2431 3.87411 22.5481L3.23453 24.9289V25.2927V25.6645L3.7004 26.2419C3.95307 26.5583 4.4979 27.1436 4.9006 27.5311C6.19556 28.7808 7.53 29.7062 9.11712 30.4656C10.6805 31.209 12.1018 31.6283 13.8785 31.8734L14.7707 32H15.9867H17.2027L18.1029 31.8814C19.8637 31.652 21.6324 31.0983 23.2353 30.2836C24.9014 29.4373 26.1332 28.5198 27.4755 27.1277C28.7863 25.7752 29.5285 24.7233 30.3497 23.0544C31.1709 21.3934 31.6842 19.6533 31.8974 17.7708L32 16.9403L31.9526 15.477L31.9131 14.0059L31.7789 13.294C31.7078 12.8986 31.5973 12.3686 31.5341 12.1076L31.4078 11.633L31.2025 11.4195L30.9972 11.198L30.7366 11.1506L30.4761 11.1031L30.2313 11.198C30.1049 11.2534 29.9233 11.3878 29.8444 11.4986L29.6864 11.6963V12.0206C29.6864 12.2025 29.7575 12.6692 29.8444 13.0647C29.9233 13.4522 30.0339 14.1957 30.0891 14.7177L30.1839 15.6669L30.1365 16.616C30.0497 18.2928 29.7496 19.6612 29.1258 21.251C28.0835 23.9086 26.1569 26.2656 23.7012 27.8712C22.9669 28.3458 21.7114 28.9944 20.9297 29.287C19.5952 29.7932 17.4396 30.1808 16.0025 30.1808C14.6918 30.1808 12.8836 29.8882 11.5649 29.461C10.6569 29.1605 9.1487 28.4328 8.28803 27.8791C7.11941 27.1198 5.44543 25.617 5.44543 25.3244C5.44543 25.2532 5.58756 24.6916 5.75338 24.0747C5.9271 23.4498 6.29821 22.0736 6.58247 21.0058C7.68792 16.8454 8.45385 13.998 8.49333 13.8872L8.5407 13.7686L9.47244 16.1019L10.4121 18.4352L10.649 18.6488L10.8937 18.8702H11.1938C11.6439 18.8623 12.0703 18.625 12.5914 18.0714C15.7577 14.694 16.5237 13.8872 16.5552 13.911C16.5789 13.9426 16.3263 14.9234 15.2366 18.9889C14.8892 20.2939 14.6049 21.4804 14.6049 21.6227C14.6049 21.7651 14.6602 21.9866 14.7233 22.1052C14.8497 22.3583 15.2682 22.5877 15.6077 22.5877C15.9393 22.5798 16.4526 22.3188 16.65 22.0498L16.8158 21.8126L17.1948 20.4126L17.5659 19.0205L19.0504 17.8341C19.8716 17.1776 20.5901 16.6239 20.6454 16.6002L20.756 16.5607L20.8665 16.8296C20.9297 16.9719 21.2534 17.6759 21.5851 18.3957C21.9167 19.1154 22.4141 20.199 22.6826 20.8001L23.1722 21.8996L23.4485 22.2001L23.7249 22.4928L24.0249 22.5481C24.4434 22.6272 24.7988 22.5402 25.0988 22.2871L25.3673 22.0657L25.4068 21.6148L25.4383 21.1719L24.5698 19.329C24.0881 18.3166 23.4643 16.9957 23.1801 16.3866C22.8958 15.7855 22.6589 15.2635 22.6589 15.2319C22.6589 15.1686 23.6459 14.3381 27.5387 11.1585L29.7575 9.33927L29.9312 8.99917L30.1049 8.65115L30.0181 8.36641C29.8128 7.68619 28.7152 6.12802 27.6729 5.03651C25.9279 3.2015 24.0565 1.92807 21.7903 1.0343C20.9534 0.7021 19.5873 0.33826 18.5135 0.156342L17.8028 0.0376992L16.3815 0.00606164C15.5998 -0.00975737 14.676 0.00606284 14.3285 0.0456104Z" fill="#030303"/>
<path d="M223.553 8.07422C224.632 8.07422 225.623 8.28577 226.526 8.70888C227.435 9.12494 228.225 9.69967 228.895 10.4331C229.565 11.1594 230.083 11.9986 230.45 12.9506C230.817 13.8955 231 14.9004 231 15.9652C231 17.03 230.817 18.0314 230.45 18.9693C230.09 19.9001 229.579 20.7217 228.916 21.4339C228.253 22.1461 227.467 22.7032 226.557 23.1052C225.655 23.5071 224.657 23.7081 223.564 23.7081C222.45 23.7081 221.438 23.5071 220.528 23.1052C219.618 22.6962 218.836 22.1356 218.18 21.4233C217.531 20.704 217.03 19.8755 216.678 18.9376C216.325 17.9926 216.149 16.9807 216.149 15.9017C216.149 14.851 216.332 13.8567 216.699 12.9188C217.073 11.9809 217.591 11.1488 218.254 10.4225C218.924 9.68909 219.707 9.11436 220.602 8.69831C221.505 8.28225 222.489 8.07422 223.553 8.07422ZM223.596 10.2215C222.552 10.2215 221.628 10.493 220.824 11.036C220.027 11.579 219.4 12.2983 218.941 13.1938C218.49 14.0824 218.264 15.0555 218.264 16.1133C218.264 16.8326 218.402 17.5201 218.677 18.176C218.952 18.8318 219.333 19.4171 219.819 19.9319C220.306 20.4396 220.867 20.8416 221.501 21.1377C222.143 21.4269 222.827 21.5714 223.553 21.5714C224.28 21.5714 224.964 21.4198 225.605 21.1166C226.254 20.8133 226.825 20.4043 227.319 19.8896C227.82 19.3748 228.211 18.7965 228.493 18.1548C228.775 17.506 228.916 16.8432 228.916 16.1662C228.916 15.0732 228.677 14.0789 228.197 13.1833C227.725 12.2806 227.086 11.5613 226.282 11.0254C225.478 10.4895 224.583 10.2215 223.596 10.2215Z" fill="#030303"/>
<path d="M205.212 23.507C204.922 23.507 204.672 23.4047 204.461 23.2002C204.256 22.9887 204.154 22.7418 204.154 22.4598L204.122 9.03662V9.02604C204.122 8.74397 204.224 8.50421 204.429 8.30675C204.64 8.10225 204.891 8 205.18 8C205.469 8 205.716 8.10225 205.92 8.30675C206.132 8.50421 206.238 8.74397 206.238 9.02604L206.269 21.3914L214.277 21.3703H214.287C214.576 21.3703 214.823 21.476 215.028 21.6876C215.239 21.8921 215.345 22.1389 215.345 22.428C215.345 22.7172 215.239 22.9675 215.028 23.1791C214.823 23.3836 214.576 23.4858 214.287 23.4858H214.277L205.212 23.507Z" fill="#030303"/>
<path d="M192.709 23.507C192.42 23.507 192.169 23.4047 191.958 23.2002C191.753 22.9887 191.651 22.7418 191.651 22.4598L191.619 9.03662V9.02604C191.619 8.74397 191.721 8.50421 191.926 8.30675C192.137 8.10225 192.388 8 192.677 8C192.966 8 193.213 8.10225 193.417 8.30675C193.629 8.50421 193.735 8.74397 193.735 9.02604L193.766 21.3914L201.774 21.3703H201.784C202.073 21.3703 202.32 21.476 202.525 21.6876C202.736 21.8921 202.842 22.1389 202.842 22.428C202.842 22.7172 202.736 22.9675 202.525 23.1791C202.32 23.3836 202.073 23.4858 201.784 23.4858H201.774L192.709 23.507Z" fill="#030303"/>
<path d="M182.236 8.6664C182.314 8.49011 182.444 8.34202 182.628 8.22214C182.818 8.0952 183.012 8.03174 183.21 8.03174C183.4 8.03174 183.59 8.0952 183.781 8.22214C183.978 8.34202 184.112 8.49011 184.183 8.6664L190 22.1636C190.064 22.3046 190.096 22.4492 190.096 22.5973C190.096 22.8864 189.99 23.1368 189.778 23.3483C189.574 23.5528 189.327 23.6551 189.038 23.6551C188.84 23.6551 188.646 23.5916 188.456 23.4647C188.266 23.3377 188.132 23.1861 188.054 23.0098L186.245 18.8105L180.216 18.7258L178.365 23.0204C178.294 23.1967 178.164 23.3483 177.974 23.4752C177.783 23.6092 177.589 23.6762 177.392 23.6762C177.103 23.6762 176.852 23.574 176.641 23.3695C176.436 23.1579 176.334 22.9076 176.334 22.6184C176.334 22.4704 176.366 22.3258 176.429 22.1848L182.236 8.6664ZM183.21 11.7657L181.126 16.6209L185.325 16.6738L183.21 11.7657Z" fill="#030303"/>
<path d="M167.301 18.6201C167.625 18.6201 167.89 18.7188 168.094 18.9162C168.306 19.1066 168.411 19.3464 168.411 19.6355V19.6461C168.411 20.1256 168.598 20.5452 168.972 20.9049C169.346 21.2574 169.79 21.4337 170.305 21.4337C170.968 21.4337 171.486 21.2574 171.86 20.9049C172.234 20.5452 172.498 20.0586 172.653 19.4451C172.815 18.8316 172.896 18.1335 172.896 17.3507V17.0017L172.791 9.07893V9.05778C172.791 8.78276 172.896 8.543 173.108 8.33849C173.32 8.13399 173.566 8.03174 173.848 8.03174C174.138 8.03174 174.384 8.13399 174.589 8.33849C174.8 8.53594 174.906 8.77571 174.906 9.05778L175.012 17.0122V17.393C175.012 18.5143 174.857 19.5403 174.547 20.4712C174.236 21.402 173.736 22.146 173.044 22.7031C172.36 23.2602 171.454 23.5387 170.326 23.5387C169.579 23.5387 168.898 23.3695 168.285 23.031C167.678 22.6854 167.195 22.22 166.835 21.6347C166.476 21.0494 166.296 20.3865 166.296 19.6461C166.296 19.3781 166.395 19.1419 166.592 18.9374C166.797 18.7258 167.033 18.6201 167.301 18.6201Z" fill="#030303"/>
<path d="M157.654 8.6664C157.731 8.49011 157.862 8.34202 158.045 8.22214C158.236 8.0952 158.43 8.03174 158.627 8.03174C158.817 8.03174 159.008 8.0952 159.198 8.22214C159.396 8.34202 159.53 8.49011 159.6 8.6664L165.418 22.1636C165.481 22.3046 165.513 22.4492 165.513 22.5973C165.513 22.8864 165.407 23.1368 165.196 23.3483C164.991 23.5528 164.744 23.6551 164.455 23.6551C164.258 23.6551 164.064 23.5916 163.874 23.4647C163.683 23.3377 163.549 23.1861 163.472 23.0098L161.663 18.8105L155.633 18.7258L153.782 23.0204C153.712 23.1967 153.581 23.3483 153.391 23.4752C153.201 23.6092 153.007 23.6762 152.809 23.6762C152.52 23.6762 152.27 23.574 152.058 23.3695C151.854 23.1579 151.751 22.9076 151.751 22.6184C151.751 22.4704 151.783 22.3258 151.847 22.1848L157.654 8.6664ZM158.627 11.7657L156.543 16.6209L160.743 16.6738L158.627 11.7657Z" fill="#030303"/>
<path d="M150.641 22.661C150.641 22.936 150.539 23.1757 150.334 23.3802C150.137 23.5777 149.921 23.6764 149.689 23.6764C149.491 23.6764 149.319 23.6059 149.17 23.4649C149.022 23.3309 148.92 23.2286 148.864 23.1581C148.222 22.7068 147.665 22.1955 147.192 21.6243C146.727 21.0461 146.329 20.4185 145.997 19.7415C145.708 19.135 145.412 18.6626 145.109 18.3241C144.812 17.9856 144.453 17.7458 144.03 17.6048C143.607 17.4638 143.057 17.3897 142.38 17.3827L141.417 17.3721L141.428 22.4917V22.5129C141.428 22.7949 141.322 23.0418 141.11 23.2533C140.906 23.4649 140.659 23.5706 140.37 23.5706C140.081 23.5706 139.83 23.4578 139.619 23.2322C139.414 23.0065 139.312 22.7385 139.312 22.4282L139.28 9.30126C139.28 9.00509 139.383 8.75827 139.587 8.56082C139.799 8.35632 140.045 8.25054 140.327 8.24349L143.141 8.23291H143.384C144.597 8.23291 145.68 8.41273 146.632 8.77238C147.584 9.12497 148.335 9.65738 148.885 10.3696C149.435 11.0748 149.71 11.9528 149.71 13.0035C149.71 13.6804 149.569 14.2834 149.287 14.8123C149.012 15.3412 148.649 15.7889 148.197 16.1556C147.746 16.5223 147.259 16.8079 146.738 17.0124C146.977 17.3157 147.217 17.6894 147.457 18.1337C147.866 18.9164 148.264 19.611 148.652 20.2175C149.04 20.8169 149.551 21.3458 150.186 21.8042C150.313 21.8888 150.419 22.0087 150.503 22.1638C150.595 22.3119 150.641 22.4776 150.641 22.661ZM143.437 10.3485H141.396L141.417 15.4046L143.458 15.3835C144.756 15.3694 145.771 15.1719 146.505 14.7911C147.245 14.4103 147.616 13.8003 147.616 12.9612C147.616 12.1008 147.224 11.4521 146.441 11.0149C145.659 10.5706 144.657 10.3485 143.437 10.3485Z" fill="#030303"/>
<path d="M130.109 8.6664C130.187 8.49011 130.317 8.34202 130.501 8.22214C130.691 8.0952 130.885 8.03174 131.083 8.03174C131.273 8.03174 131.463 8.0952 131.654 8.22214C131.851 8.34202 131.985 8.49011 132.056 8.6664L137.873 22.1636C137.937 22.3046 137.969 22.4492 137.969 22.5973C137.969 22.8864 137.863 23.1368 137.651 23.3483C137.447 23.5528 137.2 23.6551 136.911 23.6551C136.713 23.6551 136.52 23.5916 136.329 23.4647C136.139 23.3377 136.005 23.1861 135.927 23.0098L134.118 18.8105L128.089 18.7258L126.238 23.0204C126.167 23.1967 126.037 23.3483 125.847 23.4752C125.656 23.6092 125.462 23.6762 125.265 23.6762C124.976 23.6762 124.725 23.574 124.514 23.3695C124.309 23.1579 124.207 22.9076 124.207 22.6184C124.207 22.4704 124.239 22.3258 124.302 22.1848L130.109 8.6664ZM131.083 11.7657L128.999 16.6209L133.198 16.6738L131.083 11.7657Z" fill="#030303"/>
<path d="M111.842 22.2058C111.842 21.9167 111.845 21.5641 111.852 21.148C111.859 20.7319 111.863 20.2066 111.863 19.5719L111.874 9.20573C111.874 8.9166 111.972 8.67332 112.17 8.47586C112.374 8.27841 112.625 8.17969 112.921 8.17969C113.21 8.17969 113.46 8.28194 113.672 8.48644C113.883 8.69095 113.989 8.93776 113.989 9.22688C113.996 10.1225 114 11.0251 114 11.9348C114 12.8445 114.003 13.7436 114.01 14.6321L121.256 8.56049C121.475 8.36304 121.711 8.26431 121.965 8.26431C122.268 8.26431 122.518 8.37714 122.716 8.6028C122.913 8.82846 123.012 9.07527 123.012 9.34324C123.012 9.63236 122.892 9.8827 122.652 10.0943L116.75 15.0023L123.118 21.8461C123.322 22.0647 123.424 22.2904 123.424 22.5231C123.424 22.8052 123.315 23.0485 123.097 23.253C122.878 23.4504 122.624 23.5491 122.335 23.5491C122.215 23.5491 122.088 23.528 121.954 23.4857C121.82 23.4434 121.7 23.3729 121.594 23.2741L115.153 16.3669L114 17.3506C113.993 18.6693 113.986 19.8082 113.979 20.7672C113.971 21.7192 113.964 22.3292 113.957 22.5972C113.957 22.9004 113.841 23.1401 113.608 23.3164C113.383 23.4857 113.139 23.5703 112.878 23.5703C112.484 23.5703 112.212 23.4363 112.064 23.1684C111.916 22.8933 111.842 22.5725 111.842 22.2058Z" fill="#030303"/>
<path d="M97.149 8.07422C98.228 8.07422 99.2188 8.28577 100.121 8.70888C101.031 9.12494 101.821 9.69967 102.491 10.4331C103.161 11.1594 103.679 11.9986 104.046 12.9506C104.412 13.8955 104.596 14.9004 104.596 15.9652C104.596 17.03 104.412 18.0314 104.046 18.9693C103.686 19.9001 103.175 20.7217 102.512 21.4339C101.849 22.1461 101.063 22.7032 100.153 23.1052C99.2505 23.5071 98.2527 23.7081 97.1596 23.7081C96.0454 23.7081 95.0335 23.5071 94.1238 23.1052C93.2141 22.6962 92.4314 22.1356 91.7756 21.4233C91.1268 20.704 90.6261 19.8755 90.2735 18.9376C89.9209 17.9926 89.7446 16.9807 89.7446 15.9017C89.7446 14.851 89.928 13.8567 90.2947 12.9188C90.6684 11.9809 91.1867 11.1488 91.8496 10.4225C92.5195 9.68909 93.3023 9.11436 94.1979 8.69831C95.1005 8.28225 96.0842 8.07422 97.149 8.07422ZM97.1914 10.2215C96.1477 10.2215 95.2239 10.493 94.42 11.036C93.6231 11.579 92.9955 12.2983 92.5372 13.1938C92.0858 14.0824 91.8602 15.0555 91.8602 16.1133C91.8602 16.8326 91.9977 17.5201 92.2727 18.176C92.5477 18.8318 92.9285 19.4171 93.4151 19.9319C93.9017 20.4396 94.4623 20.8416 95.097 21.1377C95.7387 21.4269 96.4227 21.5714 97.149 21.5714C97.8754 21.5714 98.5594 21.4198 99.2011 21.1166C99.8499 20.8133 100.421 20.4043 100.915 19.8896C101.415 19.3748 101.807 18.7965 102.089 18.1548C102.371 17.506 102.512 16.8432 102.512 16.1662C102.512 15.0732 102.272 14.0789 101.793 13.1833C101.32 12.2806 100.682 11.5613 99.8781 11.0254C99.0742 10.4895 98.1786 10.2215 97.1914 10.2215Z" fill="#030303"/>
<path d="M87.0898 23.528C86.8007 23.528 86.5504 23.4257 86.3388 23.2212C86.1343 23.0097 86.0321 22.7593 86.0321 22.4702L86.0215 9.23746C86.0215 8.96949 86.1202 8.7262 86.3177 8.5076C86.5151 8.28899 86.7513 8.17969 87.0264 8.17969C87.3508 8.17969 87.6152 8.28194 87.8197 8.48644C88.0313 8.68389 88.137 8.93423 88.137 9.23746L88.1476 22.4702C88.1476 22.7593 88.0418 23.0097 87.8303 23.2212C87.6258 23.4257 87.379 23.528 87.0898 23.528Z" fill="#030303"/>
<path d="M84.382 22.661C84.382 22.936 84.2797 23.1757 84.0752 23.3802C83.8778 23.5777 83.6627 23.6764 83.43 23.6764C83.2325 23.6764 83.0598 23.6059 82.9117 23.4649C82.7636 23.3309 82.6613 23.2286 82.6049 23.1581C81.9632 22.7068 81.4061 22.1955 80.9336 21.6243C80.4682 21.0461 80.0698 20.4185 79.7384 19.7415C79.4492 19.135 79.1531 18.6626 78.8498 18.3241C78.5536 17.9856 78.194 17.7458 77.7709 17.6048C77.3478 17.4638 76.7977 17.3897 76.1208 17.3827L75.1582 17.3721L75.1688 22.4917V22.5129C75.1688 22.7949 75.063 23.0418 74.8514 23.2533C74.6469 23.4649 74.4001 23.5706 74.111 23.5706C73.8219 23.5706 73.5715 23.4578 73.36 23.2322C73.1555 23.0065 73.0532 22.7385 73.0532 22.4282L73.0215 9.30126C73.0215 9.00509 73.1237 8.75827 73.3282 8.56082C73.5398 8.35632 73.7866 8.25054 74.0687 8.24349L76.8824 8.23291H77.1256C78.3386 8.23291 79.421 8.41273 80.373 8.77238C81.325 9.12497 82.076 9.65738 82.6261 10.3696C83.1761 11.0748 83.4511 11.9528 83.4511 13.0035C83.4511 13.6804 83.3101 14.2834 83.028 14.8123C82.753 15.3412 82.3898 15.7889 81.9385 16.1556C81.4872 16.5223 81.0006 16.8079 80.4788 17.0124C80.7186 17.3157 80.9583 17.6894 81.1981 18.1337C81.6071 18.9164 82.0055 19.611 82.3934 20.2175C82.7812 20.8169 83.2925 21.3458 83.9271 21.8042C84.0541 21.8888 84.1598 22.0087 84.2445 22.1638C84.3361 22.3119 84.382 22.4776 84.382 22.661ZM77.1785 10.3485H75.137L75.1582 15.4046L77.1997 15.3835C78.4972 15.3694 79.5127 15.1719 80.2461 14.7911C80.9865 14.4103 81.3567 13.8003 81.3567 12.9612C81.3567 12.1008 80.9654 11.4521 80.1826 11.0149C79.3999 10.5706 78.3985 10.3485 77.1785 10.3485Z" fill="#030303"/>
<path d="M63.8506 8.6664C63.9282 8.49011 64.0587 8.34202 64.242 8.22214C64.4324 8.0952 64.6263 8.03174 64.8238 8.03174C65.0142 8.03174 65.2046 8.0952 65.395 8.22214C65.5924 8.34202 65.7264 8.49011 65.7969 8.6664L71.6147 22.1636C71.6782 22.3046 71.7099 22.4492 71.7099 22.5973C71.7099 22.8864 71.6041 23.1368 71.3926 23.3483C71.1881 23.5528 70.9412 23.6551 70.6521 23.6551C70.4547 23.6551 70.2607 23.5916 70.0703 23.4647C69.8799 23.3377 69.746 23.1861 69.6684 23.0098L67.8596 18.8105L61.8303 18.7258L59.9792 23.0204C59.9087 23.1967 59.7782 23.3483 59.5878 23.4752C59.3974 23.6092 59.2035 23.6762 59.006 23.6762C58.7169 23.6762 58.4666 23.574 58.255 23.3695C58.0505 23.1579 57.9482 22.9076 57.9482 22.6184C57.9482 22.4704 57.98 22.3258 58.0434 22.1848L63.8506 8.6664ZM64.8238 11.7657L62.74 16.6209L66.9393 16.6738L64.8238 11.7657Z" fill="#030303"/>
<path d="M42.8325 23.4224C42.5434 23.4224 42.293 23.3201 42.0815 23.1156C41.877 22.9041 41.7747 22.6537 41.7747 22.3646L41.743 9.23761C41.7359 9.17414 41.7324 9.11067 41.7324 9.04721C41.7324 8.94848 41.7536 8.85328 41.7959 8.76161C41.8453 8.66993 41.9017 8.57473 41.9651 8.47601C42.1344 8.20099 42.3777 8.06348 42.695 8.06348C43.2027 8.06348 43.5518 8.26093 43.7422 8.65583L49.4013 17.8902L54.6373 8.64525C54.8488 8.29266 55.1344 8.11637 55.4941 8.11637C55.7973 8.11637 56.0617 8.21509 56.2874 8.41254C56.5131 8.60999 56.6259 8.86386 56.6259 9.17414V22.4069C56.6259 22.696 56.5201 22.9464 56.3086 23.1579C56.1041 23.3624 55.8572 23.4647 55.5681 23.4647C55.279 23.4647 55.0286 23.3624 54.8171 23.1579C54.6126 22.9464 54.5103 22.696 54.5103 22.4069V12.9504L50.3533 20.5029C50.2757 20.6298 50.1558 20.7532 49.9936 20.8731C49.8314 20.986 49.6552 21.0424 49.4648 21.0424C49.0557 21.0424 48.7419 20.8731 48.5233 20.5346L43.8585 12.9081L43.8903 22.354V22.3646C43.8903 22.6537 43.7845 22.9041 43.5729 23.1156C43.3684 23.3201 43.1216 23.4224 42.8325 23.4224Z" fill="#030303"/>
</svg>
